<?xml version="1.0" standalone="no"?>
<!DOCTYPE svg PUBLIC "-//W3C//DTD SVG 1.1//EN" "http://www.w3.org/Graphics/SVG/1.1/DTD/svg11.dtd" >
<svg xmlns="http://www.w3.org/2000/svg">
<metadata>Generated by IcoMoon</metadata>
<defs>
<font id="spond" horiz-adv-x="1024">
<font-face units-per-em="1024" ascent="960" descent="-64" />
<missing-glyph horiz-adv-x="1024" />
<glyph unicode="&#x20;" d="" horiz-adv-x="512" />
<glyph unicode="&#x2b;" d="M952.692 525.576h-386.017v384.9c0 27.369-29.355 49.524-62.061 49.524s-62.061-22.218-62.061-49.524v-384.9h-394.085c-26.748 0-48.469-29.044-48.469-62.061s21.721-62.061 48.469-62.061h394.147v-415.93c0-27.369 29.355-49.524 62.061-49.524s62.061 22.218 62.061 49.524v415.93h385.955c26.748 0 48.469 29.044 48.469 62.061s-21.783 62.061-48.469 62.061z" horiz-adv-x="1001" />
<glyph unicode="&#x3e;" d="M552.201 488.201l-455.111 455.111c-22.225 22.225-58.254 22.225-80.479 0s-22.225-58.254 0-80.479l414.91-414.91-414.91-414.91c-22.225-22.225-22.225-58.254 0-80.479 11.074-11.074 25.638-16.687 40.201-16.687s29.127 5.537 40.201 16.687l455.111 455.111c22.3 22.376 22.3 58.33 0.076 80.555z" horiz-adv-x="569" />
<glyph unicode="&#x5e;" d="M921.846 960c26.221 0 52.443-9.97 72.382-30.045l819.418-819.145c40.015-39.878 40.015-104.886 0-144.901-40.015-40.015-104.886-40.015-144.901 0l-746.9 746.763-747.037-746.627c-40.015-40.015-104.886-39.878-144.901 0-40.015 40.015-40.015 104.886 0 144.901l819.418 819.145c20.076 19.939 46.297 29.909 72.519 29.909z" horiz-adv-x="1844" />
<glyph unicode="&#x61;" d="M980.114-64h-802.465c-97.953 0-177.649 79.696-177.649 177.649v234.057c0 10.064 1.404 20.187 4.155 30.076l133.647 501.175c13.692 48.040 57.461 81.042 106.672 81.042h668.76c49.269 0 93.038-33.061 106.496-80.399l133.998-502.404c2.633-9.596 4.037-19.602 4.037-29.55v-234.057c0-97.894-79.696-177.591-177.649-177.591zM244.473 872.229c-10.006 0-19.31-6.963-22.060-16.56l-133.588-501.058c-0.761-2.692-1.053-4.857-1.053-6.905v-234.057c0-49.562 40.316-89.878 89.878-89.878h802.465c49.562 0 89.878 40.316 89.878 89.878v234.057c0 2.048-0.293 4.272-0.995 6.554l-133.939 502.111c-2.516 8.894-11.761 15.857-21.826 15.857h-668.76zM684.442 156.657h-211.178c-40.55 0-76.946 22.528-95.086 58.748l-33.002 66.063h-115.449c-23.172 0-45.407 11.001-59.568 29.316-14.102 18.256-19.017 42.598-13.049 65.068l107.783 375.369c8.543 32.066 38.444 55.003 72.382 55.003h483.211c33.938 0 63.781-22.938 72.558-55.764l107.257-373.731c6.144-23.406 1.229-47.689-12.873-65.946-14.102-18.256-36.337-29.257-59.509-29.257h-115.449l-33.002-66.063c-18.081-36.279-54.477-58.807-95.027-58.807zM246.579 369.298h125.689c16.618 0 31.832-9.421 39.263-24.283l45.173-90.346c3.16-6.32 9.538-10.24 16.56-10.24h211.12c7.080 0 13.4 3.92 16.56 10.24l45.173 90.346c7.431 14.863 22.645 24.283 39.263 24.283h125.747l-100.235 349.155h-464.077l-100.235-349.155z" horiz-adv-x="1158" />
<glyph unicode="&#x63;" d="M800.695 162.67l-142.409-226.67-110.080 226.67h-378.807c-104.594 0-169.399 107.593-169.399 212.187v438.857c0 104.594 41.691 146.286 146.286 146.286h658.286c104.594 0 146.286-41.691 146.286-146.286v-438.857c0-104.594-45.568-212.187-150.162-212.187zM146.286 301.714h365.714v73.143h-365.714v-73.143zM804.571 813.714h-658.286v-73.143h658.286v73.143zM804.571 667.429h-658.286v-73.143h658.286v73.143zM804.571 521.143h-658.286v-73.143h658.286v73.143z" horiz-adv-x="951" />
<glyph unicode="&#x64;" d="M921.846-64c-26.221 0-52.443 9.97-72.382 30.045l-819.418 819.145c-40.015 39.878-40.015 104.886 0 144.901s104.886 40.015 144.901 0l747.037-746.763 747.037 746.763c40.015 40.015 104.886 39.878 144.901 0 40.015-40.015 40.015-104.886 0-144.901l-819.418-819.145c-20.212-20.076-46.434-30.045-72.655-30.045z" horiz-adv-x="1844" />
<glyph unicode="&#x65;" d="M977.901 691.044l-117.297-117.297-226.251 219.323 120.762 120.762c61.441 61.512 161.204 61.512 222.787 0 61.512-61.512 61.512-161.204 0-222.787zM791.88 505.093l-484.885-483.613-306.995-85.481 84.208 308.268 482.128 480.855 225.544-220.030z" />
<glyph unicode="&#x67;" d="M1155.599 160.227c-13.634 0-27.092 6.32-35.694 18.315-14.16 19.661-9.655 47.104 10.064 61.206 17.379 12.464 25.103 29.082 25.103 53.775 0 76.069-86.777 145.349-215.918 172.442-16.208 3.394-29.199 15.682-33.412 31.715s0.878 33.061 13.283 44.061c39.965 35.46 62.903 88.649 62.903 145.993 0 101.756-72.031 184.496-160.622 184.496-24.225 0-43.886 19.661-43.886 43.886s19.661 43.886 43.886 43.886c136.982 0 248.393-122.119 248.393-272.267 0-56.057-15.565-109.656-44.003-154.595 133.998-46.109 217.205-135.753 217.205-239.557 0-52.838-21.358-96.139-61.733-125.104-7.782-5.617-16.735-8.251-25.571-8.251zM623.996-64c-0.059 0-0.059 0-0.117 0l-112.113 0.351-111.821-0.351c-110.416 0-191.459 3.686-254.947 21.943-93.506 26.975-144.998 89.234-144.998 175.25 0 128.322 113.050 239.616 288.592 291.284-44.763 57.812-70.1 131.774-70.1 209.774 0 178.527 131.657 323.76 293.391 323.76 70.861 0 139.44-28.496 192.98-80.223 17.73-17.145 33.646-36.63 47.163-57.929 34.875-54.828 53.307-118.96 53.307-185.607 0-33.236-5.032-67.057-14.98-100.469-12.112-40.784-30.661-77.473-55.179-109.188 119.018-34.757 210.359-96.841 256.468-175.952 14.102-24.283 23.698-50.088 28.438-76.771 2.282-12.756 3.745-25.629 3.745-38.678 0-197.193-240.611-197.193-399.828-197.193zM511.883 870.239c-113.401 0-205.619-105.852-205.619-235.988 0-80.808 35.752-155.18 95.671-199.007 14.219-10.416 20.831-28.262 16.852-45.407s-17.847-30.252-35.226-33.236c-174.139-30.427-295.79-122.236-295.79-223.408 0-31.364 9.245-69.983 81.569-90.873 53.541-15.448 127.912-18.549 230.488-18.549l111.938 0.351 112.347-0.351c176.772 0 311.94 8.075 311.94 109.422 0 7.899-1.053 15.623-2.399 23.289-2.926 16.501-8.953 32.709-17.905 48.040-42.189 72.499-145.232 129.317-275.485 152.079-17.32 3.043-31.188 16.091-35.226 33.236-3.979 17.145 2.633 34.992 16.794 45.407 14.336 10.474 27.56 23.113 39.38 37.449 20.070 24.342 35.226 53.365 44.997 86.192 7.49 25.278 11.352 50.673 11.352 75.425 0 49.913-13.692 97.777-39.614 138.503-9.83 15.506-21.299 29.55-34.055 41.896-37.098 35.811-84.027 55.53-132.008 55.53z" horiz-adv-x="1243" />
<glyph unicode="&#x6d;" d="M1084.123 817.998h-1028.998c-30.429 0-55.125 31.825-55.125 71.001s24.696 71.001 55.125 71.001h1028.998c30.429 0 55.125-31.825 55.125-71.001s-24.696-71.001-55.125-71.001zM1084.123 376.999h-1028.998c-30.429 0-55.125 32.193-55.125 71.956s24.696 71.956 55.125 71.956h1028.998c30.429 0 55.125-32.266 55.125-71.956s-24.696-71.956-55.125-71.956zM1084.123-64h-1028.998c-30.429 0-55.125 31.899-55.125 71.295s24.696 71.295 55.125 71.295h1028.998c30.429 0 55.125-31.899 55.125-71.295s-24.696-71.295-55.125-71.295z" horiz-adv-x="1139" />
<glyph unicode="&#x6f;" d="M512-64c-282.294 0-512 229.706-512 512s229.706 512 512 512 512-229.706 512-512-229.706-512-512-512zM512 860.903c-227.658 0-412.903-185.245-412.903-412.903s185.245-412.903 412.903-412.903 412.903 185.245 412.903 412.903-185.245 412.903-412.903 412.903z" />
<glyph unicode="&#x70;" d="M905.802 9.162c0-40.392-33.821-73.162-75.44-73.162h-754.835c-41.707 0-75.527 32.769-75.527 73.162 0 146.323 145.885 282.746 295.012 336.719-86.129 51.607-144.045 143.081-144.045 248.399v73.162c0 161.569 135.196 292.559 301.934 292.559s301.934-130.99 301.934-292.559v-73.162c0-105.318-57.916-196.792-144.045-248.399 149.127-53.973 295.012-190.395 295.012-336.719z" horiz-adv-x="906" />
<glyph unicode="&#x73;" d="M764.108-64l-337.115 254.124 464.457 641.918-598.183-541.12-293.267 221.085 1018.792 447.993-254.684-1024zM254.684-64v256.028l191.013-128.014-191.013-128.014z" horiz-adv-x="1019" />
<glyph unicode="&#x74;" d="M84.107 909.453c-42.844-27.027-171.652-182.243 11.21-574.238 192.628-412.488 409.325-414.345 454.714-391.582l-130.596 270.958c-37.687-17.949-65.126 19.531-114.916 100.131-32.597 53.641-67.808 122.412-93.941 194.966-17.949 51.303-31.772 103.019 7.84 122.206l-134.31 277.56zM647.754-9.808c17.605 8.734 23.245 29.090 15.405 45.251v0c0 0-101.712 211.127-101.712 211.058-8.115 16.918-28.059 23.657-44.77 15.68l-76.473-36.861 131.078-271.989c0 0 76.405 36.999 76.473 36.861v0 0zM315.865 678.864c17.743 8.528 23.382 28.815 15.68 44.77v0c0 0-104.738 217.454-104.738 217.385-8.115 16.918-28.059 23.588-44.77 15.611l-76.542-36.861 133.897-277.766c0-0.069 76.542 36.724 76.473 36.861v0 0z" horiz-adv-x="667" />
<glyph unicode="&#x76;" d="M558.599-64c-18.816 0-37.632 7.154-51.94 21.56l-485.099 485.001c-28.714 28.714-28.714 75.264 0 103.978s75.264 28.714 103.978 0l433.355-433.355 834.958 825.648c28.812 28.518 75.46 28.322 103.978-0.588s28.322-75.46-0.588-103.978l-886.898-877c-14.406-14.21-33.124-21.266-51.744-21.266z" horiz-adv-x="1519" />
<glyph unicode="&#x78;" d="M607.267 447.955l397.059 397.059c26.321 26.321 26.321 68.991 0 95.312s-68.991 26.321-95.312 0l-396.97-397.059-397.059 396.97c-26.321 26.321-68.991 26.321-95.312 0s-26.321-68.991 0-95.312l397.059-396.97-396.97-396.97c-26.321-26.321-26.321-68.991 0-95.312 13.116-13.116 30.363-19.763 47.611-19.763s34.496 6.558 47.611 19.763l397.059 397.059 396.97-396.97c13.116-13.116 30.363-19.763 47.611-19.763s34.496 6.558 47.611 19.763c26.321 26.321 26.321 68.991 0 95.312l-396.97 396.88z" />
<glyph unicode="&#xa7;" d="M378.952 812.366c-16.871 18.332-40.258 27.468-70.224 27.468-20.221 0-39.467-6.334-57.799-19.063-18.393-12.729-27.529-30.331-27.529-52.744 0.792-21.012 10.476-39.162 29.174-54.449 18.759-15.409 42.146-30.209 70.224-44.4s58.591-28.443 91.541-42.634c32.889-14.252 63.22-30.879 90.932-49.942 27.651-19.124 50.673-41.233 69.067-66.265 18.272-25.093 27.468-55.241 27.468-90.383 0-38.188-10.476-71.868-31.427-101.042-21.012-29.174-49.455-50.186-85.328-62.854 21.682-16.505 37.396-35.934 47.141-58.408 9.684-22.474 14.556-46.775 14.556-72.964 0-31.427-7.126-58.956-21.378-82.527s-32.645-43.243-55.485-59.017-48.481-27.529-76.923-35.386c-28.504-7.857-56.946-11.816-85.328-11.816-35.934 0-69.249 4.324-99.946 12.912-30.696 8.588-57.434 21.682-80.273 39.284-22.839 17.602-40.563 40.076-53.292 67.361-12.729 27.346-19.063 59.687-19.063 97.144h139.229c1.462-32.158 11.755-56.337 30.879-72.416s45.435-24.118 79.177-24.118c23.205 0 42.816 6.212 58.956 18.515 16.079 12.364 24.118 30.879 24.118 55.606 0.792 21.682-8.222 40.441-26.92 56.155-18.698 15.714-42.268 30.635-70.711 44.887-28.443 14.191-59.504 28.625-93.185 43.182-33.681 14.617-65.108 31.671-94.281 51.1-29.174 19.49-53.536 42.268-72.964 68.518-19.672 26.25-29.356 57.677-29.356 94.342 0 40.441 10.476 74.487 31.427 102.199 21.012 27.712 50.551 48.298 88.739 61.758-15.774 17.236-27.712 34.411-35.934 51.648-8.283 17.175-12.364 37.761-12.364 61.758 0 31.427 6.882 59.322 20.769 83.684s31.793 44.704 53.901 61.21c22.048 16.444 47.141 28.808 75.218 37.030 28.077 8.161 56.276 12.303 84.719 12.303 32.95 0 63.829-4.69 92.698-14.008 28.808-9.379 53.901-23.388 75.218-42.086 21.317-18.698 38.127-41.355 50.49-67.909 12.364-26.677 18.515-57.495 18.515-92.698h-139.169c0 27.651-8.466 50.673-25.276 69.067zM212.742 573.739c-4.872 2.984-10.293 4.081-16.323 3.35-8.161-0.731-15.835-3.533-22.961-8.405-7.126-4.872-13.095-10.841-17.967-17.967s-8.831-14.983-11.816-23.57-4.446-16.993-4.446-25.215c0-10.476 2.802-20.586 8.405-30.331 5.664-9.745 14.8-17.967 27.529-24.667l202.084-110.056c3.715-1.523 8.588-3.167 14.556-5.055s12.364-2.802 19.063-2.802c7.491 0 14.374 2.071 20.769 6.151s11.755 9.379 16.323 15.714c4.507 6.334 8.039 13.095 10.658 20.221s3.898 13.643 3.898 19.672c0 17.236-5.055 31.427-15.165 42.695-10.049 11.207-21.865 20.586-35.325 28.077l-185.213 104.331c-4.507 2.253-9.197 4.872-14.069 7.857z" horiz-adv-x="602" />
<glyph unicode="&#xe604;" d="M1045.533 481.627l-334.472-256.308-335.326 255.17-374.597-372.415 0.285-113.261c0-32.631 28.363-58.907 63.081-58.812l1293.968 2.087c34.813-0.095 62.986 26.276 62.891 58.907l-0.19 113.072-375.641 371.562zM296.244 541.104l-296.054 225.289 0.759-518.972zM1124.93 542.337l296.054-292.639-0.759 518.782zM1356.954 960l-1294.063-1.897c-34.813-0.095-62.986-26.466-62.891-59.097v-25.327l710.871-541.074 709.164 543.161v25.422c-0.095 32.631-28.363 58.907-63.081 58.812z" horiz-adv-x="1421" />
<glyph unicode="&#xe607;" d="M471.903-64c-260.186 0-471.903 211.717-471.903 471.903 0 167.937 90.362 324.548 235.891 408.76 21.799 12.543 49.809 5.115 62.352-16.684 12.665-21.799 5.176-49.748-16.623-62.413-117.337-67.954-190.284-194.302-190.284-329.663 0-209.83 170.738-380.567 380.567-380.567s380.567 170.677 380.567 380.567c0 135.421-72.886 261.709-190.223 329.602-21.799 12.665-29.228 40.614-16.623 62.413 12.665 21.799 40.614 29.167 62.413 16.623 145.468-84.212 235.769-240.823 235.769-408.638 0-260.247-211.717-471.903-471.903-471.903zM471.903 411.983c-33.612 0-60.891 27.218-60.891 60.891v426.235c0 33.673 27.279 60.891 60.891 60.891s60.891-27.218 60.891-60.891v-426.235c0-33.673-27.279-60.891-60.891-60.891z" horiz-adv-x="944" />
<glyph unicode="&#xe608;" d="M512 257.829c-104.858 0-190.171 85.314-190.171 190.171s85.314 190.171 190.171 190.171 190.171-85.314 190.171-190.171-85.314-190.171-190.171-190.171zM512 550.4c-56.408 0-102.4-45.934-102.4-102.4s45.934-102.4 102.4-102.4 102.4 45.934 102.4 102.4-45.934 102.4-102.4 102.4zM551.79-64h-79.579c-48.625 0-90.873 34.64-100.411 82.271l-12.288 61.499-52.136-34.757c-39.38-26.39-95.554-20.948-129.2 12.815l-56.291 56.232c-34.406 34.523-39.79 88.883-12.815 129.258l34.757 52.195-61.44 12.288c-47.748 9.421-82.388 51.61-82.388 100.352v79.638c0 48.742 34.64 90.99 82.388 100.411l61.44 12.288-34.816 52.136c-26.917 40.433-21.592 94.793 12.756 129.2l56.349 56.349c33.587 33.529 89.234 39.205 129.083 12.932l52.312-34.933 12.288 61.499c9.596 47.689 51.785 82.33 100.411 82.33h79.579c48.742 0 90.931-34.699 100.411-82.447l12.288-61.381 52.195 34.816c39.79 26.331 95.612 20.714 129.2-12.815l56.291-56.291c34.348-34.465 39.731-88.825 12.815-129.258l-34.816-52.195 61.44-12.288c47.748-9.421 82.388-51.668 82.388-100.352v-79.579c0-48.684-34.64-90.99-82.447-100.411l-61.381-12.288 34.757-52.195c26.975-40.375 21.592-94.735-12.756-129.2l-56.349-56.291c-33.704-33.821-89.819-39.322-129.258-12.756l-52.078 34.699-12.347-61.499c-9.421-47.631-51.61-82.271-100.352-82.271zM359.161 176.143c6.495 0 13.049-1.404 19.134-4.389 10.65-5.149 21.65-9.772 33.002-13.751 14.687-5.091 25.571-17.613 28.613-32.827l17.964-89.644c1.346-6.788 7.373-11.761 14.336-11.761h79.579c6.963 0 12.99 4.915 14.336 11.644l18.022 89.761c3.043 15.272 13.926 27.736 28.613 32.827 11.352 3.979 22.352 8.602 33.002 13.751 13.926 6.905 30.486 5.734 43.476-2.984l76.186-50.732c6.495-4.33 11.41-5.091 18.432 1.814l56.291 56.232c4.915 4.915 5.676 12.756 1.814 18.491l-50.79 76.186c-8.66 12.99-9.772 29.608-2.926 43.593 5.149 10.65 9.772 21.592 13.692 32.885 5.091 14.687 17.613 25.629 32.885 28.613l89.644 17.964c6.846 1.404 11.761 7.373 11.761 14.336v79.638c0 6.963-4.915 12.99-11.761 14.336l-89.702 17.964c-15.272 3.043-27.794 13.926-32.885 28.672-3.979 11.352-8.602 22.352-13.751 33.002-6.788 13.985-5.617 30.486 2.984 43.418l50.79 76.127c3.862 5.793 3.043 13.575-1.872 18.549l-56.232 56.232c-6.905 6.846-12.054 6.144-18.491 1.755l-76.127-50.732c-12.932-8.66-29.608-9.655-43.535-2.984-10.708 5.208-21.709 9.83-33.002 13.751-14.687 5.091-25.571 17.613-28.613 32.827l-17.905 89.702c-1.346 6.905-7.373 11.82-14.336 11.82h-79.579c-6.963 0-12.99-4.974-14.336-11.82l-17.964-89.644c-3.043-15.214-13.926-27.736-28.613-32.827-11.352-3.979-22.352-8.602-33.002-13.751-13.985-6.846-30.603-5.676-43.476 2.984l-76.186 50.79c-4.155 2.692-9.947 6.554-18.491-1.872l-56.232-56.232c-4.974-4.974-5.793-12.639-1.814-18.549l50.732-76.127c8.602-12.873 9.772-29.433 2.984-43.418-5.208-10.708-9.772-21.767-13.751-33.061-5.091-14.687-17.554-25.629-32.827-28.672l-89.702-17.905c-6.846-1.404-11.761-7.373-11.761-14.336v-79.579c0-6.963 4.915-12.99 11.703-14.336l89.761-17.964c15.272-3.043 27.736-13.926 32.885-28.613 3.92-11.293 8.543-22.352 13.751-33.002 6.788-13.926 5.617-30.486-2.984-43.418l-50.849-76.244c-3.862-5.793-3.101-13.575 1.872-18.549l56.232-56.174c7.080-7.022 12.054-6.085 18.432-1.872l76.244 50.79c7.373 4.857 15.857 7.314 24.342 7.314z" />
<glyph unicode="&#xe60b;" d="M595.643 662.179c0 164.47-133.351 297.821-297.821 297.821s-297.821-133.351-297.821-297.821c0-46.582 10.739-90.683 29.782-129.963v0l267.992-596.263 273.623 608.482c15.607 36.13 24.246 75.935 24.246 117.744zM297.821 794.528c73.119 0 132.349-59.278 132.349-132.349s-59.23-132.349-132.349-132.349-132.349 59.23-132.349 132.349 59.23 132.349 132.349 132.349z" horiz-adv-x="596" />
</font>
</defs>
</svg>
